<svg width="64" height="62" viewBox="0 0 64 62" fill="none" xmlns="http://www.w3.org/2000/svg">
<path d="M39.8711 32.3756C39.8711 32.3756 61.0499 25.2982 62.87 20.9365C64.69 16.5748 59.9745 15.2581 56.0862 16.0811C56.0862 16.0811 58.8162 14.3529 58.0717 10.7318C57.4098 7.11083 52.1979 9.00363 49.2196 9.90889C49.2196 9.90889 46.655 11.3079 48.475 7.76919C50.2951 4.23048 48.8887 0.691765 44.0076 2.83145C39.1266 4.97114 36.5619 8.42756 34.3282 5.87639C32.0945 3.32522 30.2745 -0.707264 26.3862 1.35013C22.4979 3.32522 24.1525 11.9663 24.1525 11.9663L39.8711 32.3756Z" fill="black"/>
<path d="M40.0365 32.9516L8.1856 43.65C7.19285 43.4854 6.20009 43.2386 5.12461 42.9917H5.04187C5.20733 36.4903 3.55273 31.6349 3.71819 25.0512C3.88365 24.9689 5.78644 23.1584 5.86917 22.9938C5.9519 22.9115 6.11736 22.8292 6.11736 22.7469L19.5196 9.57963C20.5123 8.75667 21.5051 7.85142 22.4151 6.94617L26.5516 12.9538C26.6343 13.1183 26.717 13.2829 26.8825 13.4475C27.1307 13.7767 27.3789 14.1882 27.6271 14.5174L35.2382 25.545C35.4037 25.7919 35.5691 26.1211 35.8173 26.368C36.0655 26.6971 36.231 27.0263 36.4791 27.2732L40.2847 32.787C40.2847 32.7047 40.202 32.787 40.0365 32.9516Z" fill="black"/>
<path d="M4.46338 42.0043L3.88428 28.3432L21.8366 12.5424L35.9006 32.2111L4.46338 42.0043Z" fill="#ED232C"/>
<path d="M26.1382 12.0487L38.9613 30.0715C38.9613 30.0715 56.0036 24.3108 59.0646 22.1711C62.1256 19.9491 61.0501 17.6448 55.4245 18.8792C49.7989 20.1137 49.7989 18.9615 50.8744 17.7271C51.9499 16.4927 56.5827 15.1759 56.8309 13.2008C57.0791 11.2257 55.3418 9.66212 49.7989 11.9664C44.256 14.1884 45.4142 9.9913 46.1588 8.83916C46.8206 7.68702 48.6407 3.32535 43.5942 5.79422C38.5477 8.2631 34.4939 11.0611 32.7566 7.85162C31.102 4.64208 28.5374 1.76174 26.8 3.98372C25.0627 6.20571 26.1382 12.0487 26.1382 12.0487Z" fill="white"/>
<path d="M0.740234 25.2984L3.80123 24.4754L9.75776 61.6731L4.71126 47.8474L0.740234 25.2984Z" fill="black"/>
<path d="M8.3509 41.6752L4.37988 42.8274L4.54534 44.7202L9.59184 43.1566L8.3509 41.6752Z" fill="black"/>
</svg>
