<svg width="62" height="46" viewBox="0 0 62 46" fill="none" xmlns="http://www.w3.org/2000/svg">
<path d="M23.7849 32.0339C23.7849 32.0339 2.60616 24.9564 0.786105 20.5948C-1.03395 16.2331 3.68164 14.9164 7.56994 15.7393C7.56994 15.7393 4.83986 14.0111 5.58442 10.3901C6.24626 6.7691 11.4582 8.6619 14.4365 9.56715C14.4365 9.56715 17.0011 10.9662 15.1811 7.42746C13.361 3.88874 14.7674 0.350029 19.6485 2.48972C24.5295 4.62941 27.0941 8.08582 29.3278 5.53466C31.5615 2.98349 33.3816 -1.049 37.2699 1.00839C41.1582 2.98349 39.5036 11.6245 39.5036 11.6245L23.7849 32.0339Z" fill="black"/>
<path d="M23.62 32.6099L55.4709 43.3083C56.4636 43.1437 57.4564 42.8968 58.5319 42.65H58.6146C58.4492 36.1486 58.3664 29.6472 58.1182 23.0636C57.9528 22.9813 57.7873 22.8167 57.7046 22.6521C57.6219 22.5698 57.4564 22.4875 57.4564 22.4052L44.0542 9.23789C43.0614 8.41493 42.0687 7.50968 41.1587 6.60443L37.0222 12.612C36.9395 12.7766 36.8567 12.9412 36.6913 13.1058C36.4431 13.435 36.1949 13.8465 35.9467 14.1756L28.3356 25.2033C28.1701 25.4502 28.0047 25.7793 27.7565 26.0262C27.5083 26.3554 27.3428 26.6846 27.0946 26.9315L23.2891 32.4453C23.3718 32.363 23.5373 32.4453 23.62 32.6099Z" fill="black"/>
<path d="M61.0142 42.2386L59.7732 28.0014L41.8209 12.2007L27.7568 31.8693L61.0142 42.2386Z" fill="#ED232C"/>
<path d="M37.5179 11.7069L24.6948 29.7297C24.6948 29.7297 7.65254 23.969 4.59155 21.8293C1.53055 19.6073 2.60603 17.303 8.23165 18.5375C13.8573 19.7719 13.8573 18.6198 12.7818 17.3853C11.7063 16.1509 7.07343 14.8342 6.82525 12.8591C6.57706 10.884 8.31438 9.32034 13.8573 11.6246C19.4002 13.8466 18.2419 9.64952 17.4974 8.49738C16.8355 7.34524 15.0155 2.98357 20.062 5.45244C25.1085 7.92131 29.1622 10.7194 30.8996 7.50983C32.5542 4.3003 35.1188 1.41994 36.8561 3.64192C38.6762 5.86391 37.5179 11.7069 37.5179 11.7069Z" fill="white"/>
<path d="M60.1036 24.0513L57.9526 45.6127L61.8409 45.2836L60.1036 24.0513Z" fill="black"/>
<path d="M55.3052 41.3333L59.8553 42.65V44.5428L54.147 42.8146L55.3052 41.3333Z" fill="black"/>
</svg>
