<svg width="250" height="227" viewBox="0 0 250 227" fill="none" xmlns="http://www.w3.org/2000/svg">
<path d="M41.5304 147.327C38.0558 147.821 35.243 148.726 32.4302 148.644C16.2979 148.315 6.12212 139.262 3.5575 122.803C2.1511 113.915 4.05388 105.604 11.9132 100.172C19.938 94.5759 28.6246 95.2343 37.1457 99.4313C38.1385 99.9251 39.1313 102.065 38.8831 103.052C34.5811 117.701 35.4084 132.103 41.5304 147.327ZM7.52853 120.911C8.35582 119.347 9.10039 117.783 9.92769 116.22C12.9887 110.624 15.636 109.307 19.938 111.117C25.3154 113.339 26.8045 117.207 25.0672 123.132C23.909 127 22.7508 131.033 22.5853 134.983C22.4199 140.826 29.7001 144.2 35.243 140.579C33.092 140.25 31.6029 140.085 30.1965 139.756C24.9018 138.686 23.4126 135.148 26.4736 130.786C27.7146 129.058 29.3692 127.659 30.6101 125.931C34.8293 120.005 34.2502 113.915 31.1892 107.825C28.3764 102.312 23.3299 100.83 17.4561 101.077C13.2369 101.242 10.1759 103.052 8.35582 106.756C6.20485 111.117 5.29483 115.726 7.52853 120.911Z" fill="#FAD2D7"/>
<path d="M7.52875 120.91C8.35605 119.347 9.10061 117.783 9.92791 116.219C12.9889 110.623 15.6363 109.307 19.9382 111.117C25.3156 113.339 26.8048 117.207 25.0674 123.132C23.9092 127 22.751 131.033 22.5855 134.983C22.4201 140.826 29.7003 144.2 35.2432 140.579C33.0922 140.25 31.6031 140.085 30.1967 139.756C24.902 138.686 23.4128 135.147 26.4738 130.786C27.7148 129.058 29.3694 127.659 30.6103 125.93C34.8295 120.005 34.2504 113.915 31.1894 107.825C28.3766 102.311 23.3301 100.83 17.4563 101.077C13.2371 101.242 10.1761 103.052 8.35605 106.755C6.20508 111.117 5.29505 115.726 7.52875 120.91Z" fill="black"/>
<path d="M236.773 106.262C236.773 114.656 237.848 122.968 236.607 130.868C232.802 154.322 216.752 168.066 196.566 177.941C174.229 188.887 150.238 191.191 125.832 189.627C107.384 188.393 89.8449 183.784 73.8781 174.238C57.6631 164.527 45.5018 151.524 41.0344 132.514C38.3871 121.322 39.7935 110.623 43.8472 100.501C107.715 115.973 171.665 110.047 236.773 106.262ZM184.239 144.694C151.065 143.377 118.718 142.143 86.453 140.908C86.0393 141.32 85.6257 141.731 85.1293 142.143C88.4385 148.15 90.9204 154.816 95.0569 160.165C111.934 181.645 146.101 186.582 167.942 171.111C175.056 166.008 180.517 159.589 183.081 151.113C183.66 149.22 183.826 147.245 184.239 144.694ZM186.225 114.409C176.546 118.771 170.92 129.469 172.905 137.452C183.826 125.601 198.221 123.297 213.608 122.721V115.314C201.116 113.915 189.617 116.219 178.697 122.968L186.225 114.409ZM63.6196 122.721C78.8419 123.461 93.4023 125.437 104.24 137.369C107.218 130.374 99.9379 116.796 90.1758 113.504C93.5677 117.372 96.1324 120.252 98.697 123.132C87.8594 116.466 76.36 114.08 63.6196 115.479V122.721ZM132.037 131.691C134.105 132.679 136.174 134.489 138.242 134.489C140.062 134.489 141.882 132.349 143.702 131.197C143.454 130.786 143.206 130.374 142.957 129.963H132.782C132.616 130.539 132.285 131.115 132.037 131.691Z" fill="white"/>
<path d="M42.2753 74.3312C68.1696 77.0469 93.3194 79.6804 118.304 82.3139C111.024 90.6257 109.452 101.324 115.822 106.838C103.826 105.85 92.5749 105.521 81.5718 103.958C69.7415 102.229 58.0766 99.4314 46.4117 96.8802C44.8399 96.551 42.5234 94.7405 42.4407 93.5884C42.1098 86.9224 42.2753 80.2565 42.2753 74.3312ZM82.2337 90.2142C76.4426 86.1818 72.3061 86.3463 67.8387 90.2965C68.1696 90.708 68.5833 91.6133 68.9142 91.6133C73.0507 91.2841 77.1872 90.7903 82.2337 90.2142Z" fill="white"/>
<path d="M239.833 107.085C246.452 107.085 252.491 106.344 258.282 107.249C267.465 108.731 274.58 116.302 275.738 124.367C276.979 132.843 272.594 141.402 264.404 146.093C254.973 151.442 244.963 150.208 234.291 148.891C240.661 135.559 242.315 122.145 239.833 107.085ZM250.754 146.751C255.469 145.928 257.455 143.624 257.041 139.921C256.628 136.547 255.552 133.255 254.559 130.045C253.484 126.507 251.085 122.885 255.304 119.923C258.861 117.454 265.728 118.935 268.706 122.639C269.451 123.626 270.112 124.696 270.857 125.766C271.436 125.601 271.932 125.519 272.512 125.354C271.932 122.803 271.933 120.005 270.692 117.783C267.3 111.529 257.372 108.648 250.754 111.529C244.632 114.244 242.481 120.91 245.955 126.589C247.114 128.564 248.603 130.292 250.009 132.103C255.304 138.851 255.304 139.262 250.754 146.751Z" fill="#FAD2D7"/>
<path d="M151.231 81.7375H138.325C136.919 87.1691 140.476 93.0121 146.019 93.835C145.937 94.9872 145.854 96.057 145.854 95.9747C150.239 97.2914 153.961 98.3613 159.504 100.007C156.361 93.1767 153.796 87.416 151.231 81.7375Z" fill="white"/>
<path d="M126.825 106.92C124.508 101.982 122.192 97.1268 119.958 92.2714L121.034 91.2016C122.523 91.5307 124.012 91.8599 126.328 92.3537C127.321 89.0619 128.314 85.6877 129.472 81.7375H120.951C120.454 87.9097 119.462 93.9996 119.544 100.089C119.793 107.332 120.372 107.496 126.825 106.92Z" fill="white"/>
<path d="M140.476 106.838H152.555C149.907 105.027 147.922 103.711 145.853 102.229C144.199 103.628 142.71 104.945 140.476 106.838Z" fill="white"/>
<path d="M184.239 144.694C183.825 147.245 183.742 149.22 183.163 151.031C180.599 159.507 175.139 165.926 168.024 171.028C146.183 186.5 111.933 181.645 95.139 160.083C90.9198 154.734 88.4379 148.068 85.2114 142.06C85.6251 141.649 86.0387 141.237 86.5351 140.826C118.717 142.143 150.981 143.377 184.239 144.694ZM159.834 146.257C144.115 145.599 128.479 145.023 112.678 144.365C111.023 147.986 111.933 150.29 115.325 151.607C129.141 157.038 143.122 157.861 157.186 153.17C158.924 152.594 159.834 149.796 161.157 147.986C160.744 147.41 160.33 146.834 159.834 146.257Z" fill="black"/>
<path d="M186.225 114.409C176.546 118.771 170.92 129.469 172.906 137.452C183.826 125.601 198.221 123.297 213.609 122.721V115.314C201.116 113.915 189.617 116.22 178.697 122.968L186.225 114.409Z" fill="black"/>
<path d="M63.6201 122.721C78.8424 123.462 93.4028 125.437 104.24 137.369C107.219 130.374 99.9384 116.796 90.1763 113.504C93.5682 117.372 96.1329 120.252 98.6975 123.132C87.8599 116.466 76.3605 114.08 63.6201 115.479V122.721Z" fill="black"/>
<path d="M132.037 131.691C134.105 132.679 136.174 134.489 138.242 134.489C140.062 134.489 141.882 132.35 143.702 131.197C143.454 130.786 143.206 130.374 142.957 129.963H132.782C132.616 130.539 132.285 131.115 132.037 131.691Z" fill="black"/>
<path d="M208.149 93.1767C203.598 88.8974 198.966 88.9797 194.25 93.4236C194.664 93.8351 195.077 94.7403 195.491 94.6581C199.627 94.3289 203.764 93.7528 208.149 93.1767Z" fill="black"/>
<path d="M82.2338 90.2142C76.4428 86.1817 72.3063 86.3463 67.8389 90.2965C68.1698 90.708 68.5834 91.6132 68.9144 91.6132C73.0508 91.284 77.1873 90.7903 82.2338 90.2142Z" fill="black"/>
<path d="M250.754 146.751C255.47 145.928 257.455 143.624 257.042 139.921C256.628 136.547 255.553 133.255 254.56 130.045C253.484 126.506 251.085 122.885 255.304 119.923C258.862 117.454 265.728 118.935 268.707 122.639C269.451 123.626 270.113 124.696 270.858 125.766C271.437 125.601 271.933 125.519 272.512 125.354C271.933 122.803 271.933 120.005 270.692 117.783C267.3 111.529 257.373 108.648 250.754 111.529C244.632 114.244 242.481 120.91 245.956 126.589C247.114 128.564 248.603 130.292 250.01 132.103C255.304 138.851 255.304 139.262 250.754 146.751Z" fill="black"/>
<path d="M165.791 170.123C165.791 170.123 135.43 158.684 107.798 169.465C107.715 169.465 136.753 188.804 165.791 170.123Z" fill="#ED232D"/>
<path d="M161.82 146.175L110.031 144.036V147.986C110.031 147.986 130.465 167.655 161.158 151.113L161.82 146.175Z" fill="white"/>
<path d="M178.614 204.112C178.366 203.618 178.201 203.206 178.035 202.713L178.697 206.745C178.614 205.922 178.614 205.017 178.614 204.112Z" fill="black"/>
<path d="M180.103 215.468L179.855 213.904C179.855 214.398 179.938 214.974 180.103 215.468Z" fill="black"/>
<path d="M180.103 215.468L180.021 215.386L180.765 219.83L180.103 215.468Z" fill="black"/>
<path d="M279.13 125.272C278.055 113.092 267.052 103.628 253.567 103.217C250.34 103.135 247.031 103.217 243.226 103.217C242.812 93.5883 242.398 84.1243 241.985 74.7426H232.884C232.884 74.7426 226.018 57.872 214.684 42.8942C210.465 37.7095 205.749 32.9364 200.289 28.7393C195.822 25.2829 190.61 22.4025 185.232 20.7566C176.711 18.2055 171.499 21.415 168.107 29.6446C167.776 30.3852 167.445 31.1259 166.949 32.1134C161.82 27.8341 156.939 23.4724 151.727 19.6045C136.587 8.41227 120.041 0.594175 100.931 0.0181047C75.9463 -0.640261 61.1376 16.7241 65.605 41.166C65.8532 42.3181 65.936 43.5525 66.1014 45.2807C62.6268 42.9765 59.814 40.6722 56.6702 39.1086C48.2318 34.7469 42.0271 37.7095 40.4552 46.9267C39.8761 50.3831 40.1243 54.0864 40.538 57.6251C40.9516 61.1638 41.9444 64.7025 42.358 66.7599L43.268 71.8623H39.7934C39.6279 72.2737 39.5452 72.6852 39.5452 73.0967C39.297 80.5856 39.4625 88.0745 39.4625 95.728C34.4987 94.8228 30.6931 93.6706 26.8048 93.4237C10.5898 92.2716 0.0831668 102.229 0.000437137 118.359C-0.0822925 137.452 11.5826 150.455 30.7759 152.018C34.9123 152.347 39.1316 151.031 44.1781 150.372C55.5948 169.3 73.7953 180.246 95.9668 187.817C96.0496 187.817 96.1323 187.817 96.215 187.899C96.6287 187.735 97.125 187.899 97.2905 188.393C97.7869 190.039 97.7869 191.767 97.7041 193.413C97.6214 195.306 97.6214 197.199 97.6214 199.091V209.049L97.9523 208.72V237.441L139.814 247.481L140.558 240.815L184.488 239.745C183.329 233.326 182.088 226.743 180.765 219.748C180.517 218.266 180.186 216.785 179.937 215.221C180.02 215.221 180.02 215.304 180.103 215.304L179.276 210.037C179.276 209.872 179.193 209.79 179.193 209.625C179.027 208.802 178.945 208.062 178.862 207.239L178.117 202.383C178.035 202.136 177.869 201.807 177.786 201.56C177.29 200.244 177.125 198.845 176.959 197.363C176.876 196.869 176.959 196.376 177.042 195.882L176.049 189.545C182.916 186.912 189.451 184.69 195.822 181.974C209.968 175.802 221.964 166.914 231.395 154.569C232.471 153.17 235.201 152.594 237.186 152.512C244.053 152.183 251.085 153.088 257.786 152.018C270.857 150.125 280.206 137.863 279.13 125.272ZM238.841 77.7876V102.641C213.36 104.122 187.879 105.686 162.399 107.167C163.391 105.11 164.55 104.287 165.625 103.217C166.618 102.229 167.445 100.995 168.273 99.8428C167.776 99.6782 167.363 99.5959 166.866 99.4313C166.204 97.95 165.212 96.551 164.881 94.9874C163.722 89.885 164.632 83.7951 156.773 82.0669C184.488 80.5856 211.292 79.1866 238.841 77.7876ZM138.324 81.7377H151.23C153.795 87.4985 156.442 93.1768 159.503 100.007C154.043 98.3615 150.237 97.2916 145.853 95.9749C145.853 96.1395 145.936 94.9874 146.018 93.8352C140.475 92.93 136.918 87.1693 138.324 81.7377ZM152.554 106.838H140.475C142.709 104.945 144.281 103.546 145.853 102.229C147.921 103.711 149.907 105.027 152.554 106.838ZM121.034 81.7377H129.555C128.397 85.6879 127.404 89.1444 126.411 92.3539C124.012 91.8601 122.523 91.5309 121.117 91.2018C120.786 91.5309 120.455 91.8601 120.041 92.2716C120.289 88.7329 120.703 85.2765 121.034 81.7377ZM119.958 92.3539C122.275 97.2093 124.509 102.065 126.825 106.92C120.372 107.496 119.793 107.414 119.628 100.09C119.628 97.5385 119.793 94.9051 119.958 92.3539ZM42.2753 74.3311C68.1697 77.0469 93.3195 79.6804 118.304 82.3138C111.024 90.6257 109.452 101.324 115.822 106.838C103.826 105.85 92.5749 105.521 81.5719 103.958C69.7415 102.229 58.0766 99.4313 46.4118 96.8802C44.8399 96.551 42.5235 94.7405 42.4407 93.5883C42.1098 86.9224 42.2753 80.2564 42.2753 74.3311ZM32.4305 148.644C16.2982 148.315 6.12243 139.262 3.55781 122.803C2.15141 113.915 4.05419 105.604 11.9135 100.172C19.9383 94.5759 28.6249 95.2342 37.146 99.4313C38.1388 99.9251 39.1316 102.065 38.8834 103.052C34.5814 117.701 35.4087 132.103 41.6134 147.327C38.1388 147.821 35.2433 148.726 32.4305 148.644ZM196.483 177.941C174.146 188.887 150.155 191.191 125.749 189.627C107.301 188.393 89.7621 183.784 73.7953 174.238C57.5803 164.527 45.419 151.525 40.9516 132.514C38.3043 121.322 39.7107 110.624 43.7644 100.501C107.714 115.89 171.664 109.965 236.773 106.262C236.773 114.656 237.848 122.968 236.607 130.868C232.719 154.24 216.669 168.066 196.483 177.941ZM264.404 146.093C254.973 151.442 244.963 150.208 234.291 148.891C240.661 135.559 242.316 122.145 239.834 107.085C246.452 107.085 252.491 106.344 258.282 107.249C267.465 108.731 274.58 116.302 275.738 124.367C276.979 132.926 272.677 141.402 264.404 146.093Z" fill="black"/>
<path d="M96.8774 80.0919C148.335 85.0296 238.842 77.7053 238.842 77.7053V102.559C229.328 103.135 219.814 103.711 210.3 104.287L210.134 104.369C210.134 104.369 191.189 105.768 168.356 106.756C166.37 106.838 164.385 107.003 162.399 107.085C162.399 107.085 162.399 107.003 162.482 107.003C147.012 107.579 130.466 107.99 117.146 107.579C82.0688 106.591 42.4413 96.0572 42.4413 96.0572L42.2759 74.3312C42.2759 74.3312 67.1775 77.2938 96.8774 80.0919Z" fill="white"/>
<path d="M196.732 96.0571C200.703 95.5634 204.591 94.9873 208.81 94.3289C203.764 89.9673 199.544 90.1319 194.912 94.8227C195.491 95.2342 196.153 96.1394 196.732 96.0571Z" fill="black"/>
<path d="M75.119 91.4486C77.3527 91.3663 79.5864 92.0246 81.8201 92.3538C81.9028 91.7778 81.9028 91.284 81.9856 90.7079C76.5254 87.1692 73.0508 87.3338 68.8315 92.8476C70.8998 92.3538 72.968 91.5309 75.119 91.4486Z" fill="black"/>
<path d="M124.509 82.8075C124.592 82.8075 124.757 82.8075 124.84 82.8075C125.253 82.8898 124.84 83.1367 124.674 83.4659C124.674 83.4659 121.531 87.2515 119.628 91.2017C119.049 92.5184 118.718 93.9174 118.47 95.5634C118.139 97.4562 117.808 100.007 117.973 101.818C120.538 101.736 122.523 100.83 124.095 99.7604C124.757 99.349 125.502 98.6906 126.081 98.0322C126.163 97.9499 126.494 97.4562 126.66 97.4562C126.743 97.4562 126.825 97.4562 127.239 97.6207L130.383 98.4437C131.045 98.6083 131.706 98.7729 132.451 98.9375C132.451 99.0198 132.12 99.4313 131.955 99.6781C130.714 101.324 129.059 102.723 127.239 103.875C125.088 105.11 122.689 105.439 121.034 105.439C119.711 105.439 118.883 105.274 118.883 105.274C118.801 105.274 119.462 106.426 119.462 106.426C119.545 106.509 119.711 106.756 119.711 106.838C119.214 106.756 118.883 106.509 118.552 106.262C117.973 105.85 117.477 105.357 116.98 104.78C116.319 104.616 115.822 104.287 115.243 103.958C113.671 103.052 112.43 101.736 111.272 100.337C111.189 100.172 111.024 100.09 110.941 99.925C110.941 99.925 110.693 99.5958 110.693 99.5136C110.693 99.5136 110.776 99.5135 111.024 99.6781C111.355 99.925 114.002 101.242 114.829 101.242C114.995 101.242 115.078 101.242 115.078 101.159C114.499 98.9375 114.168 96.9624 114.25 95.0696C114.333 92.3538 114.829 89.9672 114.829 89.9672C115.16 88.1567 115.657 86.3462 116.567 85.0295C116.815 84.618 116.98 84.4534 117.477 84.2065C117.642 84.1243 117.725 84.042 117.89 84.042C119.049 83.6305 120.538 83.3836 121.862 83.0544C121.696 83.1367 123.351 82.8075 124.509 82.8075ZM124.509 82.0669C123.351 82.0669 121.696 82.396 121.613 82.4783C121.282 82.5606 120.869 82.6429 120.538 82.7252C119.545 82.9721 118.47 83.1367 117.56 83.5482C117.394 83.6305 117.229 83.7128 117.063 83.7951C116.401 84.1243 116.153 84.4534 115.905 84.8649C115.078 86.0993 114.499 87.7453 114.002 90.1318C114.002 90.2141 113.506 92.5184 113.423 95.3165C113.34 97.0447 113.671 98.8552 114.085 100.583C113.175 100.254 111.769 99.5135 111.355 99.349C111.024 99.1021 110.858 99.0198 110.61 99.0198H109.948L109.866 99.6781V99.7604V99.8427C109.866 99.925 109.866 100.09 110.279 100.583C110.279 100.666 110.362 100.666 110.362 100.748C110.445 100.83 110.528 100.913 110.61 100.995C111.934 102.641 113.175 103.875 114.747 104.78C114.829 104.863 114.912 104.863 114.995 104.945C115.409 105.192 115.905 105.439 116.484 105.603C116.898 106.097 117.394 106.591 118.056 107.002C118.387 107.249 118.966 107.579 119.628 107.661H119.793L119.959 107.579C120.207 107.496 120.372 107.332 120.455 107.085C120.538 106.756 120.455 106.509 120.29 106.262C120.538 106.262 120.786 106.262 121.117 106.262C122.854 106.262 125.419 106.015 127.735 104.616C129.804 103.381 131.541 101.818 132.699 100.254C132.865 100.007 133.195 99.5135 133.278 99.349L133.609 98.526L132.782 98.2791C132.616 98.1968 132.368 98.1968 132.203 98.1145C131.706 97.9499 131.21 97.8676 130.796 97.703L127.653 96.8801C127.322 96.7155 127.073 96.6332 126.825 96.6332C126.743 96.6332 126.66 96.6332 126.577 96.6332C126.246 96.7155 125.998 96.9624 125.667 97.3739L125.584 97.4562C125.005 98.0322 124.426 98.6083 123.764 99.0198C122.689 99.6781 120.951 100.666 118.718 100.83C118.718 99.0198 119.049 96.7978 119.214 95.4811C119.462 93.8351 119.793 92.5184 120.29 91.3663C122.11 87.4984 125.171 83.7951 125.171 83.7951L125.253 83.7128C125.419 83.4659 125.833 83.0544 125.584 82.5606C125.502 82.396 125.336 82.0669 124.757 81.9846C124.757 82.0669 124.592 82.0669 124.509 82.0669Z" fill="#231F20"/>
<path d="M158.51 82.8074C158.51 82.8074 158.593 82.8074 158.676 82.8897C161.075 84.371 162.73 86.6753 163.888 89.4733C164.219 90.214 164.467 90.9547 164.632 91.6953C164.963 92.9297 165.294 94.4111 165.46 95.9747C165.542 97.2914 165.708 99.1019 165.542 100.666C165.46 101.489 165.377 102.394 165.294 103.381C165.211 103.381 162.399 104.287 159.999 105.356C159.42 105.603 159.42 105.686 159.42 105.686C159.338 105.686 159.503 105.356 159.586 105.11C159.586 105.11 161.24 100.83 160.744 93.6704C160.496 90.6255 159.834 86.9222 158.51 82.8074C158.51 82.8897 158.51 82.8074 158.51 82.8074ZM158.51 82.0667C158.262 82.0667 158.014 82.149 157.848 82.3959C157.683 82.5605 157.683 82.8897 157.766 83.1366C159.007 86.7576 159.751 90.2963 159.999 93.7527C160.496 100.666 158.924 104.78 158.924 104.863C158.924 104.863 158.924 104.945 158.841 105.027C158.759 105.356 158.593 105.686 158.841 106.015L159.089 106.344H159.503H159.834L159.999 106.179C160.082 106.179 160.165 106.097 160.413 106.015C162.73 105.027 165.377 104.204 165.625 104.122L166.121 104.04L166.204 103.464C166.204 103.052 166.287 102.558 166.287 102.147C166.37 101.653 166.37 101.242 166.37 100.748C166.535 99.1019 166.37 97.2914 166.287 95.8924C166.204 94.2465 165.791 92.7652 165.46 91.4484C165.211 90.5432 164.963 89.8025 164.632 89.0618C163.226 85.8523 161.489 83.548 159.089 82.149C158.924 82.2313 158.759 82.0667 158.51 82.0667Z" fill="#231F20"/>
<path fill-rule="evenodd" clip-rule="evenodd" d="M139.4 106.426C138.904 106.262 138.573 106.097 138.242 105.85C138.076 105.768 137.911 105.603 137.745 105.521C136.587 104.698 135.594 103.957 134.684 103.135C133.609 102.229 133.609 102.065 133.609 101.9C133.94 100.007 134.436 98.6905 134.767 98.0322C134.85 97.8676 134.933 97.703 134.933 97.6207L134.85 97.5384L134.767 97.4561C134.105 96.7977 133.526 96.1394 133.03 95.3164C132.864 94.9872 132.616 94.5757 132.782 94.2466L132.864 94.082H133.113C133.278 94.082 133.526 94.1643 133.692 94.4112C133.857 94.5757 135.181 95.2341 135.843 95.481C136.174 94.7403 136.753 93.5882 136.753 93.5059C138.407 90.6255 140.31 87.5806 142.957 85.2763C142.875 85.194 142.709 85.1117 142.626 84.9471C142.296 84.618 141.965 84.3711 141.634 83.9596C141.468 83.795 141.055 83.3012 141.22 82.8898C141.303 82.6429 141.551 82.5606 141.882 82.5606C142.047 82.5606 142.213 82.5606 142.296 82.5606C142.544 82.6429 142.792 82.6429 142.957 82.7252H143.04C143.536 82.8898 143.95 83.1366 144.364 83.3835L144.447 83.4658C144.529 83.4658 144.529 83.5481 144.612 83.5481C144.695 83.5481 144.777 83.6304 144.86 83.6304C144.943 83.6304 145.026 83.5481 145.191 83.4658C145.439 83.3835 145.605 83.3012 145.77 83.2189C146.846 82.7252 147.756 82.4783 147.756 82.4783C147.921 82.4783 148.087 82.4783 148.169 82.4783C148.831 82.4783 148.997 82.8075 148.997 82.9721C148.997 83.3012 148.666 83.4658 148.418 83.6304C147.756 84.0419 147.177 84.5357 146.763 85.0294C146.846 85.1117 146.928 85.194 147.011 85.2763C147.177 85.4409 147.342 85.5232 147.425 85.6878C148.748 87.1691 149.741 89.0619 150.32 90.3787C150.899 91.6131 151.396 93.0121 151.892 94.4112C151.975 94.4112 152.058 94.3289 152.058 94.3289H152.14C152.968 93.8351 153.712 93.259 154.457 92.7652C154.87 92.4361 155.367 92.1069 155.78 91.7777C155.863 91.6954 156.029 91.6131 156.194 91.6131C156.277 91.6131 156.36 91.6131 156.442 91.6954L156.69 91.7777V92.0246C156.69 92.2715 156.608 92.5184 156.525 92.7652C156.525 92.8475 156.442 92.9298 156.442 93.0121C156.36 93.259 156.36 93.4236 156.277 93.6705L156.194 93.9174L155.532 96.1394C155.367 96.7154 155.201 97.2915 155.036 97.9499L154.953 98.1968C154.87 98.3614 154.87 98.5259 154.87 98.6905C154.788 99.0197 154.705 99.2666 154.622 99.5958C154.374 100.09 153.795 100.254 153.299 100.419C153.216 100.419 153.133 100.501 152.968 100.501V103.381V103.464C152.885 103.711 152.306 104.04 151.313 104.451C150.982 104.616 150.569 104.78 150.238 104.863C149.576 105.11 148.914 105.356 148.252 105.686C148.087 105.768 147.921 105.85 147.756 105.85L147.508 105.933C147.425 105.933 147.425 105.933 147.342 106.015C147.094 106.097 146.846 106.179 146.597 106.262H146.432L146.267 106.097C145.853 105.686 146.101 104.863 146.267 104.287V104.204C146.349 103.957 146.432 103.628 146.515 103.299C146.597 102.97 146.68 102.476 146.68 102.147C146.349 102.147 145.936 102.229 145.357 102.229C144.281 102.229 142.626 102.147 140.724 101.489C140.558 101.406 140.31 101.324 140.145 101.324C140.062 101.324 139.979 101.242 139.896 101.242C139.731 105.933 139.731 106.015 139.731 106.015L139.648 106.426H139.4ZM140.972 96.7154C141.634 96.88 142.378 96.9623 143.04 96.9623C143.288 96.9623 143.619 96.9623 143.867 96.9623C144.116 96.9623 144.446 96.9623 144.695 96.9623C145.439 96.88 146.267 96.7977 147.011 96.6331C146.846 93.3413 146.101 90.5433 144.86 88.3213C144.86 88.3213 144.86 88.4036 144.777 88.4036C144.033 89.5557 143.371 90.7901 142.792 92.0246C142.047 93.4236 141.303 94.9049 140.972 96.7154Z" fill="#EC1C24"/>
<path fill-rule="evenodd" clip-rule="evenodd" d="M119.545 107.248C118.966 107.166 118.552 106.919 118.139 106.672C117.56 106.261 116.981 105.685 116.567 105.273C115.988 105.109 115.574 104.862 115.078 104.615C114.995 104.533 114.912 104.533 114.83 104.45C113.258 103.545 112.1 102.311 110.776 100.747C110.693 100.665 110.61 100.582 110.61 100.5C110.61 100.418 110.528 100.418 110.528 100.336C110.197 99.9241 110.197 99.7595 110.197 99.7595V99.6772V99.2657H110.528C110.61 99.2657 110.693 99.2657 111.107 99.5126C111.438 99.7595 113.671 100.829 114.499 100.994C113.92 98.6896 113.671 96.8791 113.671 95.1509C113.754 92.4352 114.251 90.0486 114.251 90.0486C114.664 87.7443 115.243 86.0984 116.071 84.9463C116.319 84.5348 116.567 84.2879 117.146 83.9587C117.312 83.8764 117.477 83.7941 117.642 83.7118C118.47 83.3826 119.545 83.1358 120.538 82.9712C120.952 82.8889 121.283 82.8066 121.613 82.7243C121.696 82.7243 123.351 82.3128 124.426 82.3128C124.592 82.3128 124.674 82.3128 124.757 82.3128C125.088 82.3128 125.171 82.4774 125.254 82.642C125.336 82.9712 125.171 83.2181 125.005 83.3827C124.923 83.4649 124.923 83.4649 124.923 83.5472C124.84 83.6295 121.779 87.3328 119.959 91.283C119.38 92.5175 119.132 93.8342 118.883 95.4801C118.635 96.8791 118.304 99.348 118.387 101.323C120.952 101.159 122.772 100.171 124.013 99.348C124.674 98.9365 125.336 98.3605 125.915 97.7021C125.915 97.7021 125.915 97.6198 125.998 97.6198C126.329 97.2083 126.495 97.0437 126.66 96.9614C126.66 96.9614 126.743 96.9614 126.825 96.9614C126.908 96.9614 127.074 96.9614 127.487 97.126L130.631 97.949C131.127 98.1136 131.541 98.1959 132.12 98.3605C132.286 98.4428 132.534 98.4428 132.699 98.5251L133.113 98.6074L132.947 99.0188C132.865 99.1011 132.617 99.5949 132.451 99.8418C131.293 101.405 129.638 102.887 127.57 104.121C125.336 105.438 122.854 105.685 121.117 105.685C120.455 105.685 119.959 105.685 119.545 105.602C119.628 105.767 119.711 105.932 119.793 106.096C119.793 106.096 119.793 106.096 119.876 106.179C120.042 106.343 120.124 106.59 120.124 106.837L120.042 107.002L119.876 107.084L119.545 107.248Z" fill="#EC1C24"/>
<path fill-rule="evenodd" clip-rule="evenodd" d="M159.255 106.015L159.173 105.85C159.007 105.686 159.09 105.521 159.255 105.192C159.255 105.11 159.338 105.027 159.338 105.027C159.338 104.945 160.993 100.748 160.413 93.7528C160.165 90.2964 159.421 86.6754 158.18 83.0543C158.097 82.8898 158.18 82.7252 158.263 82.6429C158.345 82.5606 158.428 82.4783 158.593 82.4783C158.676 82.4783 158.842 82.4783 158.924 82.5606C161.241 83.9596 162.978 86.0993 164.302 89.3088C164.55 89.9672 164.881 90.7901 165.046 91.6131C165.377 92.8475 165.708 94.3289 165.874 95.9748C165.956 97.2915 166.122 99.102 165.956 100.748C165.956 101.159 165.874 101.653 165.874 102.147C165.874 102.558 165.791 103.052 165.791 103.464V103.711L165.543 103.793C165.543 103.793 162.73 104.698 160.331 105.686C160 105.85 159.834 105.933 159.834 105.933L159.752 106.015H159.255Z" fill="#EC1C24"/>
<path d="M148.418 82.8897C148.666 82.8897 148.915 82.8897 148.915 83.0543C148.915 83.2189 148.584 83.3012 148.501 83.3835C147.674 83.795 147.012 84.3711 146.515 85.1117C146.764 85.4409 147.177 85.6878 147.425 86.017C148.584 87.2514 149.494 88.8973 150.238 90.6255C150.817 91.86 151.314 93.259 151.81 94.5757C151.893 94.8226 151.976 94.9049 152.058 94.9049C152.224 94.9049 152.472 94.7403 152.637 94.658C153.878 93.8351 155.037 93.0121 156.277 92.1069C156.36 92.0246 156.443 91.9423 156.526 91.9423C156.526 91.9423 156.526 91.9423 156.608 91.9423C156.608 92.2714 156.443 92.5183 156.36 92.8475C156.277 93.1767 156.195 93.5059 156.112 93.7528L155.45 95.9747C155.285 96.6331 155.037 97.3738 154.871 98.0321C154.706 98.4436 154.706 98.9374 154.54 99.3489C154.209 99.8426 153.465 99.9249 152.886 100.172C152.886 101.077 152.886 102.312 152.886 103.217C152.803 103.381 151.976 103.793 151.479 103.957C150.486 104.369 149.411 104.78 148.418 105.192C148.17 105.274 147.922 105.439 147.674 105.521C147.425 105.603 147.177 105.768 146.929 105.768C146.681 105.439 146.929 104.616 147.012 104.204C147.094 103.957 147.177 103.628 147.26 103.299C147.425 102.888 147.508 102.147 147.343 101.653C147.343 101.653 146.681 101.735 145.688 101.735C144.53 101.735 142.958 101.571 141.138 101.077C140.724 100.912 140.228 100.748 139.814 100.666C139.814 100.666 139.649 105.768 139.649 105.933C138.987 105.768 138.656 105.356 138.077 105.027C137.001 104.287 136.091 103.546 135.016 102.641C135.016 102.641 134.106 101.9 134.106 101.735C134.602 98.9374 135.512 97.5384 135.43 97.2915C135.43 97.2092 135.264 97.0446 135.099 96.9623C134.437 96.3039 133.858 95.7279 133.444 94.9049C133.361 94.658 133.113 94.3288 133.196 94.1642C133.196 94.1642 133.279 94.1642 133.527 94.4111C133.775 94.658 135.678 95.5633 136.091 95.6456C136.091 95.6456 137.084 93.5059 137.167 93.4236C138.987 90.2963 140.89 87.2514 143.62 85.0294C143.123 84.5356 142.544 84.0419 142.048 83.5481C141.883 83.3835 141.634 83.0543 141.717 82.8897C141.717 82.8074 141.883 82.8074 142.048 82.8074C142.131 82.8074 142.296 82.8074 142.379 82.8074C142.627 82.8897 142.875 82.972 143.041 83.0543C143.537 83.2189 143.951 83.4658 144.447 83.7127C144.613 83.795 144.861 83.9596 145.026 83.9596C145.109 83.9596 145.44 83.795 145.605 83.7127C145.771 83.6304 145.936 83.5481 146.102 83.4658C147.094 82.972 148.005 82.8074 148.005 82.8074C148.17 82.8897 148.335 82.8897 148.418 82.8897ZM143.868 97.3738C144.116 97.3738 144.447 97.3738 144.695 97.3738C145.688 97.2915 146.598 97.2092 147.343 96.88C147.177 93.1767 146.35 90.0495 144.861 87.6629C144.695 87.8275 144.613 87.9921 144.53 88.2389C143.785 89.3911 143.123 90.6255 142.462 91.9423C141.717 93.5059 140.972 95.1518 140.559 97.0446C141.303 97.2915 142.213 97.3738 143.041 97.3738C143.289 97.3738 143.537 97.3738 143.868 97.3738ZM148.418 82.1491C148.253 82.1491 148.087 82.1491 147.922 82.1491C147.922 82.1491 146.929 82.396 145.854 82.8897C145.688 82.972 145.523 83.0543 145.274 83.1366C145.192 83.1366 145.192 83.2189 145.109 83.2189C145.109 83.2189 145.109 83.2189 145.026 83.2189C144.944 83.2189 144.861 83.1366 144.861 83.1366L144.778 83.0543C144.364 82.8074 143.868 82.5605 143.372 82.396H143.289C143.041 82.3137 142.875 82.2314 142.544 82.1491C142.379 82.1491 142.213 82.0668 142.048 82.0668C141.386 82.0668 141.138 82.396 141.055 82.6428C140.807 83.2189 141.303 83.8773 141.469 84.1242C141.8 84.4533 142.131 84.7825 142.462 85.1117C139.897 87.416 138.16 90.3786 136.505 93.1767C136.505 93.1767 136.422 93.259 135.678 94.8226C135.099 94.5757 134.189 94.0819 133.94 93.9174C133.61 93.6705 133.361 93.5059 133.113 93.5059H132.7L132.534 93.9174C132.286 94.4111 132.617 94.9872 132.782 95.3164C133.279 96.2216 133.94 96.88 134.602 97.5384C134.602 97.6207 134.52 97.6207 134.52 97.703C134.271 98.3613 133.692 99.6781 133.361 101.653C133.279 102.147 133.61 102.476 134.52 103.217C135.43 104.04 136.422 104.78 137.581 105.603H137.663C137.829 105.686 137.994 105.768 138.077 105.933C138.408 106.179 138.822 106.426 139.318 106.591L140.062 106.838L140.228 106.097C140.228 106.015 140.228 105.933 140.393 101.735C140.476 101.735 140.642 101.818 140.724 101.818C142.627 102.394 144.364 102.558 145.44 102.558C145.854 102.558 146.184 102.558 146.433 102.558C146.433 102.805 146.35 102.97 146.35 103.217C146.267 103.546 146.184 103.875 146.102 104.122V104.204C145.936 104.78 145.688 105.768 146.184 106.344L146.433 106.673H146.846C147.177 106.673 147.508 106.509 147.674 106.426C147.756 106.426 147.756 106.426 147.839 106.344C147.922 106.344 148.005 106.262 148.17 106.262C148.335 106.179 148.501 106.097 148.666 106.097C149.328 105.85 149.99 105.603 150.652 105.274C151.066 105.11 151.396 104.945 151.727 104.78C153.382 104.122 153.547 103.711 153.63 103.546V103.464V103.381C153.63 102.888 153.63 102.394 153.63 101.9C153.63 101.571 153.63 101.242 153.63 100.912C154.127 100.748 154.788 100.583 155.119 99.9249C155.285 99.5958 155.367 99.2666 155.367 99.0197C155.367 98.8551 155.45 98.6905 155.45 98.6082L155.533 98.3613C155.698 97.7853 155.864 97.2092 156.029 96.5508L156.691 94.3288C156.691 94.2465 156.774 94.1642 156.774 94.0819C156.857 93.8351 156.857 93.6705 156.939 93.4236C156.939 93.3413 157.022 93.259 157.022 93.1767C157.105 92.9298 157.188 92.6829 157.188 92.3537L157.27 91.7777L156.774 91.5308C156.691 91.4485 156.526 91.4485 156.36 91.4485C156.029 91.4485 155.781 91.6131 155.698 91.6954C155.202 92.0246 154.788 92.3537 154.375 92.6829C153.713 93.1767 152.968 93.6705 152.224 94.1642C151.81 92.9298 151.314 91.6954 150.817 90.5432C150.238 89.2265 149.245 87.2514 147.839 85.7701C147.674 85.6055 147.508 85.4409 147.343 85.2763C147.674 84.8648 148.17 84.5356 148.666 84.2065C148.997 84.0419 149.494 83.795 149.494 83.2189C149.659 82.8897 149.576 82.1491 148.418 82.1491ZM141.386 96.3862C141.8 94.8226 142.462 93.4236 143.041 92.1069C143.537 91.037 144.116 90.0495 144.695 88.9796C145.688 90.9547 146.267 93.4236 146.515 96.2216C145.936 96.3862 145.192 96.4685 144.613 96.4685C144.364 96.4685 144.116 96.4685 143.868 96.4685C143.62 96.4685 143.372 96.4685 143.123 96.4685C142.544 96.5508 141.883 96.4685 141.386 96.3862Z" fill="#231F20"/>
<path d="M171.003 189.298C171.003 189.298 156.691 201.067 141.055 200.408V238.017L181.096 237.277L172.74 189.298H171.003Z" fill="#ED232C"/>
<path d="M137.91 201.149C137.91 201.149 112.429 197.692 105.976 189.133H103.246L101.013 235.137L137.579 244.272L137.91 201.149Z" fill="#ED232C"/>
<path d="M141.883 199.914L141.386 208.967L147.26 203.864L150.735 208.226L144.117 215.139L150.983 222.052L146.516 226.249L140.394 220.324L132.452 226.743L128.232 221.311L135.678 214.645L128.977 208.967L131.955 203.618L137.664 207.321L138.16 192.014L142.876 191.767L141.883 199.914Z" fill="black"/>
</svg>
