<svg width="79" height="73" viewBox="0 0 79 73" fill="none" xmlns="http://www.w3.org/2000/svg">
<path fill-rule="evenodd" clip-rule="evenodd" d="M57.4807 30.1026L61.6464 43.4501C55.388 49.2334 53.2952 51.9295 50.4996 61.2614L37.5418 61.424L32.67 50.1947C34.3175 49.3795 37.8357 46.8098 38.4534 45.6145C36.1628 41.3352 30.8546 42.5888 25.1972 42.5844C19.742 42.58 14.2736 42.5591 8.81843 42.5932C6.3389 46.0913 4.98091 49.5806 5.56985 55.243C7.02398 54.4575 13.1267 45.2926 23.1431 50.2991C28.195 52.8238 31.0911 59.8277 34.8822 64.5079L54.0311 64.5288L54.5648 62.0008C55.5857 51.6581 62.8453 46.9307 70.9104 48.7951C74.4407 49.6147 75.6009 52.0712 78.4208 49.3136C75.096 42.7734 68.5314 42.5976 66.9215 41.6868C65.463 40.8595 65.6055 39.4346 64.6817 37.7339C66.2961 36.288 68.9314 35.8662 68.1955 32.5438C67.548 29.6148 64.3458 29.405 62.2818 30.6553L61.042 28.7326L57.4807 30.1026ZM29.3739 38.3985L45.8676 44.4038C43.8423 58.8005 39.9285 61.3625 48.8941 59.519C49.5538 57.2997 52.5294 45.1937 52.3869 42.9821C52.1051 38.6941 44.0191 36.4627 40.1639 34.9708L41.492 25.3587C43.2157 26.1069 42.2312 25.518 43.661 26.7627C45.6411 28.4799 46.6621 30.8332 50.5118 30.1059C52.0079 29.8214 59.4984 26.9671 60.6708 26.0563C60.9989 18.7635 54.4675 24.0084 49.4532 25.0159C47.2002 22.3209 42.4169 15.7971 38.828 15.128C31.0148 13.6778 31.9142 15.8597 30.4347 25.9146C29.8281 30.0279 28.4834 34.7038 29.3739 38.3985ZM0.0627483 22.8856C0.0627483 28.7744 -0.247745 33.3162 0.52904 38.9413C3.8196 40.0993 22.3475 40.2706 25.2138 38.8028C26.1552 35.631 25.7519 26.9177 25.7519 22.8845C25.7519 19.5292 24.7519 18.8349 21.4779 18.8349H4.46711C0.986493 18.836 0.0627483 19.2458 0.0627483 22.8856ZM74.1877 63.5851C71.7203 71.3284 59.0023 68.5751 61.6873 59.7068C64.1005 51.7339 76.718 55.6495 74.1877 63.5851ZM64.642 51.311C50.377 55.7034 57.3957 76.9534 71.6065 72.1809C76.2252 70.6263 80.6174 64.876 78.4153 58.2226C76.8098 53.3929 71.3292 49.251 64.642 51.311ZM15.773 55.5276C24.2381 53.2918 27.1508 66.0208 19.005 68.0192C10.4902 70.1045 7.16541 57.8051 15.773 55.5276ZM14.3023 51.1066C0.347828 55.1057 5.87924 76.1185 20.2492 72.4193C25.2259 71.1361 29.5253 65.5736 28.0878 59.1048C26.953 53.9862 20.7199 49.2675 14.3023 51.1066ZM38.5075 1.61795C31.0347 5.52585 36.9738 15.4423 43.6146 12.1408C50.6466 8.64272 45.4511 -2.00979 38.5075 1.61795Z" fill="#ECAF12"/>
</svg>
