<svg width="72" height="73" viewBox="0 0 72 73" fill="none" xmlns="http://www.w3.org/2000/svg">
<path d="M38.2451 37.5202L49.7908 45.2002L72.0001 33.7602L64.303 24.1602L38.2451 37.5202Z" fill="#ECAF12"/>
<path d="M49.7105 47.6801C49.47 47.6801 49.2295 47.6001 49.0691 47.5201L37.1226 39.6001V72.2401L56.686 61.9201L58.45 51.9201L60.0535 42.4801L50.2718 47.5201C50.1114 47.6001 49.9511 47.6801 49.7105 47.6801Z" fill="#ECAF12"/>
<path d="M33.755 37.5202L7.6971 24.1602L0 33.7602L22.2094 45.2002L33.755 37.5202Z" fill="#ECAF12"/>
<path d="M40.9712 6.08024L38.2451 7.84024L64.303 21.2802L72.0001 11.6802L49.7908 0.240234L40.9712 6.08024Z" fill="#ECAF12"/>
<path d="M32.9531 33.52C33.1135 33.92 33.2738 34.32 33.354 34.8L35.9999 36.16L40.1692 34C37.9242 32.88 35.2783 32.72 32.9531 33.52Z" fill="#ECAF12"/>
<path d="M22.2898 47.68C22.1294 47.68 21.969 47.6 21.7285 47.52L11.9468 42.48L13.5503 51.92L15.2341 61.92L34.8777 72.24V39.52L22.851 47.44C22.6907 47.6 22.4501 47.68 22.2898 47.68Z" fill="#ECAF12"/>
<path d="M34.0758 30.8803C33.4344 29.7603 32.6326 28.7203 31.6705 27.7603C29.1048 25.2003 25.7373 23.8403 22.2095 23.8403C22.0491 23.8403 22.0491 23.8403 21.9689 23.8403C21.4077 23.8403 20.8464 23.9203 20.205 24.0003C18.6015 24.2403 16.9979 24.8003 15.5547 25.6003L18.0402 26.8803C22.0491 25.2803 26.8598 26.1603 30.0669 29.2003C30.7885 29.8403 31.43 30.6403 31.911 31.4403C32.6326 31.2003 33.3542 30.9603 34.0758 30.8803Z" fill="#ECAF12"/>
<path d="M38.8063 31.0403C39.2072 30.0803 39.6081 29.1203 40.0891 28.2403C39.127 28.0803 38.0847 27.9203 37.0424 27.8403C36.3207 27.7603 35.5991 27.7603 34.7974 27.8403C35.4388 28.7203 36.0802 29.6803 36.5613 30.7203C37.2829 30.8003 38.0847 30.8803 38.8063 31.0403Z" fill="#ECAF12"/>
<path d="M36.5613 25.6001C35.0379 23.8401 33.1938 22.6401 31.2695 22.0001C29.4254 21.4401 27.5813 21.4401 25.8174 22.0001C28.4633 22.6401 30.8686 23.9201 32.8731 25.7601C32.9532 25.7601 35.4388 25.5201 36.5613 25.6001Z" fill="#ECAF12"/>
<path d="M50.4321 21.0401C45.8619 19.2001 41.5323 22.0001 39.127 25.8401C39.4477 25.9201 39.7684 25.9201 40.0891 26.0001C40.5702 26.0801 41.0512 26.1601 41.5323 26.3201C43.6169 23.3601 46.8241 21.2001 50.4321 21.0401Z" fill="#ECAF12"/>
<path d="M43.8572 32.0803C45.1401 28.3203 47.8661 24.8003 51.6345 23.2803C48.3472 22.9603 45.1401 24.7203 42.8149 28.0803C42.0933 29.2003 41.4519 30.4003 40.8906 31.7603C41.4519 32.0003 42.0131 32.3203 42.4942 32.7203L43.8572 32.0803Z" fill="#ECAF12"/>
<path d="M37.8441 23.6C38.5658 22.64 39.3675 21.76 40.2495 20.96C39.5279 20.72 38.8063 20.56 38.0045 20.48C36.8018 20.4 35.5992 20.48 34.3965 20.88C35.6793 21.6 36.8018 22.56 37.8441 23.6Z" fill="#ECAF12"/>
<path d="M22.2895 28.4004C21.8886 28.4004 21.5679 28.4004 21.167 28.4804L30.3073 33.2004C28.7037 30.2404 25.657 28.4004 22.2895 28.4004Z" fill="#ECAF12"/>
<path d="M42.4144 19.4404C42.8954 19.2004 43.3765 18.9604 43.9378 18.8004C42.0937 16.9604 39.6883 15.9204 37.1226 15.9204C36.5614 15.9204 36.0803 16.0004 35.519 16.0804C36.4812 16.5604 38.0046 17.6804 38.646 18.3204C39.9288 18.4004 41.2919 18.8004 42.4144 19.4404Z" fill="#ECAF12"/>
<path d="M56.2852 25.2C55.8042 25.12 55.3231 25.04 54.9222 25.04C52.0358 25.04 49.0692 27.2 47.2251 30.48L57.0068 25.44C56.7663 25.28 56.5258 25.2 56.2852 25.2Z" fill="#ECAF12"/>
<path d="M30.3076 16.9604C27.2608 16.9604 24.5347 18.4004 22.5303 20.9604C25.1762 19.3604 28.4635 18.8805 31.4301 19.6005C32.312 19.0405 33.9156 18.4804 35.0381 18.2404C34.0759 17.6804 33.0336 17.2804 31.9111 17.0404C31.2697 17.0404 30.7886 16.9604 30.3076 16.9604Z" fill="#ECAF12"/>
<path d="M33.755 7.84024L31.029 6.08024L22.2094 0.240234L0 11.6802L7.6971 21.2802L33.755 7.84024Z" fill="#ECAF12"/>
<path d="M59.5723 24.0803L62.138 22.7203L35.9999 9.28027L9.86182 22.7203L13.2293 24.4803C15.0734 23.2003 17.0779 22.3203 19.2427 21.9203C21.4877 17.5203 25.6569 14.7203 30.2271 14.7203C30.7883 14.7203 31.2694 14.8003 31.9108 14.8803C33.5946 14.0003 35.2783 13.6003 37.1224 13.6003C40.7304 13.6003 44.0979 15.2803 46.4231 18.2403C46.7438 18.2403 47.0645 18.1603 47.3852 18.1603C50.5923 18.1603 53.6391 19.6803 56.1246 22.4803C56.3652 22.6403 56.6859 22.8003 56.9264 22.9603C57.8885 23.2003 58.6903 23.6003 59.5723 24.0803Z" fill="#ECAF12"/>
</svg>
