<svg width="73" height="73" viewBox="0 0 73 73" fill="none" xmlns="http://www.w3.org/2000/svg">
<path d="M38.7451 37.7799L50.2908 45.4599L72.5001 34.0199L64.803 24.4199L38.7451 37.7799Z" fill="#96211D"/>
<path d="M50.2105 47.9399C49.97 47.9399 49.7295 47.8599 49.5691 47.7799L37.6226 39.8599V72.4999L57.186 62.1799L58.95 52.1799L60.5535 42.7399L50.7718 47.7799C50.6114 47.8599 50.4511 47.9399 50.2105 47.9399Z" fill="#96211D"/>
<path d="M34.255 37.7799L8.1971 24.4199L0.5 34.0199L22.7094 45.4599L34.255 37.7799Z" fill="#96211D"/>
<path d="M41.4712 6.34L38.7451 8.1L64.803 21.54L72.5001 11.94L50.2908 0.5L41.4712 6.34Z" fill="#96211D"/>
<path d="M33.4531 33.7798C33.6135 34.1798 33.7738 34.5798 33.854 35.0598L36.4999 36.4198L40.6692 34.2598C38.4242 33.1398 35.7783 32.9798 33.4531 33.7798Z" fill="#96211D"/>
<path d="M22.7898 47.9398C22.6294 47.9398 22.469 47.8598 22.2285 47.7798L12.4468 42.7398L14.0503 52.1798L15.7341 62.1798L35.3777 72.4998V39.7798L23.351 47.6998C23.1907 47.8598 22.9501 47.9398 22.7898 47.9398Z" fill="#96211D"/>
<path d="M34.5758 31.1401C33.9344 30.0201 33.1326 28.9801 32.1705 28.0201C29.6048 25.4601 26.2373 24.1001 22.7095 24.1001C22.5491 24.1001 22.5491 24.1001 22.4689 24.1001C21.9077 24.1001 21.3464 24.1801 20.705 24.2601C19.1015 24.5001 17.4979 25.0601 16.0547 25.8601L18.5402 27.1401C22.5491 25.5401 27.3598 26.4201 30.5669 29.4601C31.2885 30.1001 31.93 30.9001 32.411 31.7001C33.1326 31.4601 33.8542 31.2201 34.5758 31.1401Z" fill="#96211D"/>
<path d="M39.3063 31.3C39.7072 30.34 40.1081 29.38 40.5891 28.5C39.627 28.34 38.5847 28.18 37.5424 28.1C36.8207 28.02 36.0991 28.02 35.2974 28.1C35.9388 28.98 36.5802 29.94 37.0613 30.98C37.7829 31.06 38.5847 31.14 39.3063 31.3Z" fill="#96211D"/>
<path d="M37.0613 25.8598C35.5379 24.0998 33.6938 22.8998 31.7695 22.2598C29.9254 21.6998 28.0813 21.6998 26.3174 22.2598C28.9633 22.8998 31.3686 24.1798 33.3731 26.0198C33.4532 26.0198 35.9388 25.7798 37.0613 25.8598Z" fill="#96211D"/>
<path d="M50.9321 21.2999C46.3619 19.4599 42.0323 22.2599 39.627 26.0999C39.9477 26.1799 40.2684 26.1799 40.5891 26.2599C41.0702 26.3399 41.5512 26.4199 42.0323 26.5799C44.1169 23.6199 47.3241 21.4599 50.9321 21.2999Z" fill="#96211D"/>
<path d="M44.3572 32.3401C45.6401 28.5801 48.3661 25.0601 52.1345 23.5401C48.8472 23.2201 45.6401 24.9801 43.3149 28.3401C42.5933 29.4601 41.9519 30.6601 41.3906 32.0201C41.9519 32.2601 42.5131 32.5801 42.9942 32.9801L44.3572 32.3401Z" fill="#96211D"/>
<path d="M38.3441 23.8598C39.0658 22.8998 39.8675 22.0198 40.7495 21.2198C40.0279 20.9798 39.3063 20.8198 38.5045 20.7398C37.3018 20.6598 36.0992 20.7398 34.8965 21.1398C36.1793 21.8598 37.3018 22.8198 38.3441 23.8598Z" fill="#96211D"/>
<path d="M22.7895 28.6602C22.3886 28.6602 22.0679 28.6602 21.667 28.7402L30.8073 33.4602C29.2037 30.5002 26.157 28.6602 22.7895 28.6602Z" fill="#96211D"/>
<path d="M42.9144 19.7002C43.3954 19.4602 43.8765 19.2202 44.4378 19.0602C42.5937 17.2202 40.1883 16.1802 37.6226 16.1802C37.0614 16.1802 36.5803 16.2602 36.019 16.3402C36.9812 16.8202 38.5046 17.9402 39.146 18.5802C40.4288 18.6602 41.7919 19.0602 42.9144 19.7002Z" fill="#96211D"/>
<path d="M56.7852 25.4598C56.3042 25.3798 55.8231 25.2998 55.4222 25.2998C52.5358 25.2998 49.5692 27.4598 47.7251 30.7398L57.5068 25.6998C57.2663 25.5398 57.0258 25.4598 56.7852 25.4598Z" fill="#96211D"/>
<path d="M30.8076 17.2202C27.7608 17.2202 25.0347 18.6602 23.0303 21.2202C25.6762 19.6202 28.9635 19.1402 31.9301 19.8602C32.812 19.3002 34.4156 18.7402 35.5381 18.5002C34.5759 17.9402 33.5336 17.5402 32.4111 17.3002C31.7697 17.3002 31.2886 17.2202 30.8076 17.2202Z" fill="#96211D"/>
<path d="M34.255 8.1L31.529 6.34L22.7094 0.5L0.5 11.94L8.1971 21.54L34.255 8.1Z" fill="#96211D"/>
<path d="M60.0723 24.34L62.638 22.98L36.4999 9.54004L10.3618 22.98L13.7293 24.74C15.5734 23.46 17.5779 22.58 19.7427 22.18C21.9877 17.78 26.1569 14.98 30.7271 14.98C31.2883 14.98 31.7694 15.06 32.4108 15.14C34.0946 14.26 35.7783 13.86 37.6224 13.86C41.2304 13.86 44.5979 15.54 46.9231 18.5C47.2438 18.5 47.5645 18.42 47.8852 18.42C51.0923 18.42 54.1391 19.94 56.6246 22.74C56.8652 22.9 57.1859 23.06 57.4264 23.22C58.3885 23.46 59.1903 23.86 60.0723 24.34Z" fill="#96211D"/>
</svg>
