<svg width="80" height="73" viewBox="0 0 80 73" fill="none" xmlns="http://www.w3.org/2000/svg">
<path fill-rule="evenodd" clip-rule="evenodd" d="M57.9807 29.7272L62.1464 43.0746C55.888 48.8579 53.7952 51.554 50.9996 60.8859L38.0418 61.0486L33.17 49.8193C34.8175 49.0041 38.3357 46.4343 38.9534 45.239C36.6628 40.9597 31.3546 42.2133 25.6972 42.2089C20.242 42.2045 14.7736 42.1836 9.31843 42.2177C6.8389 45.7158 5.48091 49.2051 6.06985 54.8675C7.52398 54.082 13.6267 44.9171 23.6431 49.9236C28.695 52.4483 31.5911 59.4522 35.3822 64.1325L54.5311 64.1533L55.0648 61.6253C56.0857 51.2827 63.3453 46.5552 71.4104 48.4196C74.9407 49.2392 76.1009 51.6957 78.9208 48.9381C75.596 42.3979 69.0314 42.2221 67.4215 41.3113C65.963 40.484 66.1055 39.0591 65.1817 37.3584C66.7961 35.9125 69.4314 35.4907 68.6955 32.1684C68.048 29.2394 64.8458 29.0295 62.7818 30.2798L61.542 28.3571L57.9807 29.7272ZM29.8739 38.0231L46.3676 44.0283C44.3423 58.425 40.4285 60.987 49.3941 59.1435C50.0538 56.9242 53.0294 44.8182 52.8869 42.6066C52.6051 38.3186 44.5191 36.0872 40.6639 34.5953L41.992 24.9832C43.7157 25.7314 42.7312 25.1425 44.161 26.3873C46.1411 28.1044 47.1621 30.4578 51.0118 29.7304C52.5079 29.4459 59.9984 26.5916 61.1708 25.6808C61.4989 18.388 54.9675 23.6329 49.9532 24.6404C47.7002 21.9454 42.9169 15.4216 39.328 14.7526C31.5148 13.3023 32.4142 15.4843 30.9347 25.5391C30.3281 29.6524 28.9834 34.3283 29.8739 38.0231ZM0.562748 22.5101C0.562748 28.3989 0.252255 32.9407 1.02904 38.5658C4.3196 39.7238 22.8475 39.8952 25.7138 38.4274C26.6552 35.2556 26.2519 26.5422 26.2519 22.509C26.2519 19.1537 25.2519 18.4594 21.9779 18.4594H4.96711C1.48649 18.4605 0.562748 18.8703 0.562748 22.5101ZM74.6877 63.2096C72.2203 70.9529 59.5023 68.1997 62.1873 59.3314C64.6005 51.3585 77.218 55.274 74.6877 63.2096ZM65.142 50.9355C50.877 55.3279 57.8957 76.578 72.1065 71.8054C76.7252 70.2508 81.1174 64.5005 78.9153 57.8471C77.3098 53.0174 71.8292 48.8755 65.142 50.9355ZM16.273 55.1521C24.7381 52.9163 27.6508 65.6453 19.505 67.6437C10.9902 69.729 7.66541 57.4296 16.273 55.1521ZM14.8023 50.7311C0.847828 54.7302 6.37924 75.743 20.7492 72.0438C25.7259 70.7606 30.0253 65.1982 28.5878 58.7293C27.453 53.6107 21.2199 48.892 14.8023 50.7311ZM39.0075 1.24246C31.5347 5.15036 37.4738 15.0668 44.1146 11.7653C51.1466 8.26723 45.9511 -2.38528 39.0075 1.24246Z" fill="#96211D"/>
</svg>
